# xmcd
#
# Track frame offsets: 
#        150
#        13877
#        26894
#        41487
#        53096
#        66717
#        81092
#        96413
#        110261
#        124180
#        137726
#        157888
#        171806
#        185951
#        197536
#        210845
#        225593
#        239108
#        261917
#        276656
#
# Disc length: 4063 seconds
#
# Revision: 2
# Processed by: cddbd v1.5.2PL0 Copyright (c) Steve Scherf et al.
# Submitted via: ExactAudioCopy v0.95b4
#
DISCID=2c0fdd14
DTITLE=Louis Armstrong - C'est si bon
DYEAR=2001
DGENRE=Compilation Blues
TTITLE0=Louis Armstrong with Sy Oliver's Orchestra - C'est si bon
TTITLE1=Louis Armstrong and Ella Fitzgerald acc. by Bob Haggart's Orch
TTITLE1=estra - You Won't Be Satisfied (Until You Break My Heart)
TTITLE2=Louis Armstrong and Billie holiday with Sy Oliver's Orchestra 
TTITLE2=/ You Can't Lose A Broken Heart
TTITLE3=Louis Armstrong and His Hot Seven - Blues For Yesterday
TTITLE4=Louis Armstrong and His Orchestra - Perdido Street Blues
TTITLE5=Louis Armstrong and His Orchestra - When It's Sleepy Time Down
TTITLE5=South
TTITLE6=Louis Armstrong and Sy Oliver's Orchestra - La Vie en rose
TTITLE7=Louis Armstrong and Ella Fitzgerald acc. by Sy Oliver's Orches
TTITLE7=tra - Dream A Little Dream Of Me
TTITLE8=Louis Armstrong with Louis Jordan and His Tympany Five - You R
TTITLE8=ascal You
TTITLE9=Louis Armstrong and His Dixieland Seven - Do You Know What It 
TTITLE9=Means To Miss New Orleans
TTITLE10=Leonard Feather's Esquire All American 1946 Award Winners - L
TTITLE10=ong Long Journey
TTITLE11=Louis Armstrong and His Orchestra - Rockin' Chair
TTITLE12=Louis Armstrong and His Dixieland Seven - Where The Blues Wer
TTITLE12=e Born In New Orleans
TTITLE13=Louis Armstrong and His Orchestra - I Wonder
TTITLE14=Louis Armstrong and His Orchestra - The Blues Are Brewin'
TTITLE15=Louis Armstrong and His All Stars - Lovely Weather We're Havi
TTITLE15=ng
TTITLE16=Louis Armstrong and His Orchestra - Jack-Armstrong Blues
TTITLE17=Louis Armstrong and His All Stars - That's For Me
TTITLE18=Louis Armstrong and His Orchestra - Back O' Town Blues
TTITLE19=Louis Armstrong and His All Stars - New Orleans Function
EXTD=
EXTT0=
EXTT1=
EXTT2=
EXTT3=
EXTT4=
EXTT5=
EXTT6=
EXTT7=
EXTT8=
EXTT9=
EXTT10=
EXTT11=
EXTT12=
EXTT13=
EXTT14=
EXTT15=
EXTT16=
EXTT17=
EXTT18=
EXTT19=
PLAYORDER=
